<svg width="16" height="16" viewBox="0 0 16 16" fill="none" xmlns="http://www.w3.org/2000/svg">
<path fill-rule="evenodd" clip-rule="evenodd" d="M13.92 8.8C13.92 8.56 14 8.32 14 8C14 7.68 14 7.44 13.92 7.2L15.6 5.84C15.76 5.68 15.76 5.52 15.68 5.36L14.08 2.56C14 2.48 13.84 2.4 13.6 2.48L11.6 3.28C11.2 2.96 10.72 2.72 10.24 2.48L9.92 0.4C10 0.16 9.76 0 9.6 0H6.4C6.24 0 6 0.16 6 0.32L5.68 2.48C5.2 2.64 4.8 2.96 4.32 3.28L2.4 2.48C2.16 2.4 2 2.48 1.84 2.64L0.240003 5.44C0.160003 5.52 0.240003 5.76 0.400003 5.92L2.08 7.2C2.08 7.44 2 7.68 2 8C2 8.32 2 8.56 2.08 8.8L0.400003 10.16C0.240003 10.32 0.240003 10.48 0.320003 10.64L1.92 13.44C2 13.52 2.16 13.6 2.4 13.52L4.4 12.72C4.8 13.04 5.28 13.28 5.76 13.52L6.08 15.6C6.08 15.76 6.24 15.92 6.48 15.92H9.68C9.84 15.92 10.08 15.76 10.08 15.6L10.4 13.52C10.88 13.28 11.36 13.04 11.76 12.72L13.76 13.52C13.92 13.6 14.16 13.52 14.24 13.36L15.84 10.56C15.92 10.4 15.92 10.16 15.76 10.08L13.92 8.8ZM8 10.8C6.48 10.8 5.2 9.52 5.2 8C5.2 6.48 6.48 5.2 8 5.2C9.52 5.2 10.8 6.48 10.8 8C10.8 9.52 9.52 10.8 8 10.8Z" fill="#445C78"/>
</svg>
